<svg width="23" height="23" viewBox="0 0 23 23" fill="none" xmlns="http://www.w3.org/2000/svg">
<rect width="23" height="23" fill="#FF0000" fill-opacity="0.01"/>
<path fill-rule="evenodd" clip-rule="evenodd" d="M17.6336 9.96678V15.3334L19.9336 17.6334V18.4001H3.06689V17.6334L5.36689 15.3334V9.96678C5.05117 6.9407 7.18418 4.36119 9.96689 3.83345V3.06678C10.012 2.17825 10.6568 1.53345 11.5002 1.53345C12.3437 1.53345 12.9885 2.17825 13.0336 3.06678V3.83345C15.8162 4.36119 17.9493 6.9407 17.6336 9.96678ZM13.7773 19.1668C13.7773 20.3331 12.9899 21.1904 11.4888 21.1904C9.98758 21.1904 9.20023 20.3331 9.20023 19.1668H13.7773Z" fill="black"/>
<mask id="mask0_0_1332" style="mask-type:luminance" maskUnits="userSpaceOnUse" x="3" y="1" width="17" height="21">
<path fill-rule="evenodd" clip-rule="evenodd" d="M17.6336 9.96678V15.3334L19.9336 17.6334V18.4001H3.06689V17.6334L5.36689 15.3334V9.96678C5.05117 6.9407 7.18418 4.36119 9.96689 3.83345V3.06678C10.012 2.17825 10.6568 1.53345 11.5002 1.53345C12.3437 1.53345 12.9885 2.17825 13.0336 3.06678V3.83345C15.8162 4.36119 17.9493 6.9407 17.6336 9.96678ZM13.7773 19.1668C13.7773 20.3331 12.9899 21.1904 11.4888 21.1904C9.98758 21.1904 9.20023 20.3331 9.20023 19.1668H13.7773Z" fill="white"/>
</mask>
<g mask="url(#mask0_0_1332)">
<rect width="23" height="23" fill="white"/>
</g>
</svg>
