<svg width="2236" height="1021" viewBox="0 0 2236 1021" fill="none" xmlns="http://www.w3.org/2000/svg">
<path fill-rule="evenodd" clip-rule="evenodd" d="M1187.3 0V73.8284H1215.57V361.127H1252.71V272.651H1272.27V251.28L1315.05 272.651H1325.53V219.501L1376.72 142.466L1427.9 219.501V400.247H1451.93V435.371H1487.38V292.02H1516.77L1515.54 232.541H1549.55V215.506H1584L1589.3 112.49L1594.6 215.506H1601.22V232.541H1610.17L1606.89 391.831H1613.24V321.556L1684.47 272.651V361.127H1755.71V292.02H1799.68V251.28L1875.01 313.108V251.28L1976 334.177V940H1900.68H1875.01H1802.89H1799.68H1755.71H1684.47H1613.24H1598.47H1534.57H1527.24H1491.5H1487.38H1427.9H1389.13H1325.53H1252.71H1215.57H1152.63H1125.73H1062.62H1045.5H987.551H955.996H905.022H886.554H860.266H815.513H804.022H759.269H735.118H714.513H634.127H600.821H557.503H514.179H480.828H470.861H422.476H409.593H366V349.578H400.305L397.9 232.541H470.861V63.1249H514.179V99.1374H557.503V132.109H600.821V302.097H634.127V223.063H645.986V214.346H723.256V223.063H735.118V387.863H759.269V176.061H771.133V167.345H848.401V176.061H860.266V298.026H886.554V223.063H898.416V214.346H975.684V223.063H987.551V251.28L1012.35 282.325V334.373H1045.5V302.097H1062.62V223.063H1125.73V176.272L1152.63 149.584V73.8284H1180.91V0H1187.3Z" fill="#FFC815"/>
<path fill-rule="evenodd" clip-rule="evenodd" d="M1593.24 305V361.235H1571.12V580.071H1542.05V512.679H1526.75V496.401L1493.27 512.679H1485.07V472.194L1445 413.517L1404.95 472.194V609.869H1386.14V636.623H1358.4V527.432H1335.4L1336.36 482.127H1309.75V469.151H1282.78L1278.64 390.684L1274.49 469.151H1269.3V482.127H1262.3L1264.87 603.459H1259.9V549.93L1204.15 512.679V580.071H1148.4V527.432H1113.99V496.401L1055.04 543.495V496.401L976 559.544V1021H1034.95H1055.04H1111.48H1113.99H1148.4H1204.15H1259.9H1271.46H1321.47H1327.2H1355.17H1358.4H1404.95H1435.29H1485.07H1542.05H1571.12H1620.37H1641.43H1690.82H1704.21H1749.57H1774.26H1814.16H1828.61H1849.18H1884.21H1893.2H1928.22H1947.12H1963.25H2026.16H2052.23H2086.13H2120.03H2146.13H2153.94H2191.8H2201.88H2236V571.274H2209.15L2211.03 482.127H2153.94V353.082H2120.03V380.513H2086.13V405.628H2052.23V535.108H2026.16V474.907H2016.88V468.268H1956.41V474.907H1947.12V600.436H1928.22V439.106H1918.94V432.467H1858.47V439.106H1849.18V532.007H1828.61V474.907H1819.33V468.268H1758.86V474.907H1749.57V496.401L1730.16 520.047V559.693H1704.21V535.108H1690.82V474.907H1641.43V439.266L1620.37 418.938V361.235H1598.25V305H1593.24Z" fill="#FFBC00"/>
<path fill-rule="evenodd" clip-rule="evenodd" d="M478.117 305H481.993V361.235H499.134V418.938L515.444 439.266V474.907H553.703V535.108H564.077V559.693H584.178V520.047L599.209 496.401V474.907H606.403V468.268H653.243V474.907H660.434V532.007H676.371V439.106H683.563V432.467H730.404V439.106H737.596V600.436H752.236V474.907H759.427V468.268H806.27V474.907H813.459V535.108H833.649V405.628H859.909V380.513H886.172V353.082H912.432V482.127H956.662L955.204 571.274H976V1021H0V559.544L61.2237 496.401V543.495L106.887 496.401V527.432H133.544V580.071H176.728V512.679L219.911 549.93V603.459H223.759L221.773 482.127H227.193V469.151H231.21L234.422 390.684L237.636 469.151H258.522V482.127H279.135L278.393 527.432H296.205V636.623H317.698V609.869H332.264V472.194L363.293 413.517L394.323 472.194V512.679H400.677L426.611 496.401V512.679H438.467V580.071H460.979V361.235H478.117V305Z" fill="#FFE56B"/>
</svg>
