<svg width="23" height="23" viewBox="0 0 23 23" fill="none" xmlns="http://www.w3.org/2000/svg">
<rect width="23" height="23" fill="#FF0000" fill-opacity="0.01"/>
<path fill-rule="evenodd" clip-rule="evenodd" d="M18.8649 7.98603H20.999C21.3179 7.98603 21.543 8.30643 21.4422 8.61673L21.1307 9.57507C21.0672 9.77072 20.8886 9.90269 20.6875 9.9027H19.5657L19.5677 9.90829C20.3289 10.3456 20.8436 11.1804 20.8436 12.1388V14.0555C20.8436 14.7033 20.6081 15.2944 20.2207 15.7449V18.2083C20.2207 18.7375 19.8024 19.1666 19.2863 19.1666H17.4176C16.9015 19.1666 16.4832 18.7375 16.4832 18.2083V16.611H6.51654V18.2083C6.51654 18.7375 6.09821 19.1666 5.58216 19.1666H3.71341C3.19736 19.1666 2.77904 18.7375 2.77904 18.2083V15.7449C2.39162 15.2945 2.15612 14.7033 2.15612 14.0555V12.1388C2.15612 11.1804 2.67088 10.3456 3.43201 9.90829L3.43403 9.9027H2.3122C2.11111 9.90269 1.93259 9.77072 1.86899 9.57507L1.55754 8.61673C1.4567 8.30643 1.68185 7.98603 2.00074 7.98603H4.13481L4.44059 7.14972C4.79845 6.17091 5.4304 5.33883 6.26815 4.74339C7.10585 4.14798 8.08738 3.83325 9.10662 3.83325H13.8931C14.9123 3.83325 15.8939 4.14794 16.7316 4.74339C17.5693 5.33883 18.2013 6.17091 18.5592 7.14972L18.8649 7.98603ZM9.1066 6.38881C8.07381 6.38881 7.13624 7.05521 6.77358 8.04705L6.21191 9.58326H16.7878L16.2261 8.04705C15.8635 7.05521 14.9259 6.38881 13.8931 6.38881H9.1066ZM4.95924 14.3749C4.27119 14.3749 3.71341 13.8028 3.71341 13.0971C3.71341 12.3914 4.27119 11.8194 4.95924 11.8194C5.64729 11.8194 6.82799 13.0303 6.82799 13.736C6.82799 14.3877 5.82111 14.3806 5.12513 14.3757C5.06745 14.3753 5.0119 14.3749 4.95924 14.3749ZM17.8746 14.3757C17.9323 14.3753 17.9878 14.3749 18.0405 14.3749C18.7285 14.3749 19.2863 13.8028 19.2863 13.0971C19.2863 12.3914 18.7285 11.8194 18.0405 11.8194C17.3524 11.8194 16.1717 13.0303 16.1717 13.736C16.1717 14.3877 17.1786 14.3806 17.8746 14.3757Z" fill="black"/>
<mask id="mask0_0_1330" style="mask-type:luminance" maskUnits="userSpaceOnUse" x="1" y="3" width="21" height="17">
<path fill-rule="evenodd" clip-rule="evenodd" d="M18.8649 7.98603H20.999C21.3179 7.98603 21.543 8.30643 21.4422 8.61673L21.1307 9.57507C21.0672 9.77072 20.8886 9.90269 20.6875 9.9027H19.5657L19.5677 9.90829C20.3289 10.3456 20.8436 11.1804 20.8436 12.1388V14.0555C20.8436 14.7033 20.6081 15.2944 20.2207 15.7449V18.2083C20.2207 18.7375 19.8024 19.1666 19.2863 19.1666H17.4176C16.9015 19.1666 16.4832 18.7375 16.4832 18.2083V16.611H6.51654V18.2083C6.51654 18.7375 6.09821 19.1666 5.58216 19.1666H3.71341C3.19736 19.1666 2.77904 18.7375 2.77904 18.2083V15.7449C2.39162 15.2945 2.15612 14.7033 2.15612 14.0555V12.1388C2.15612 11.1804 2.67088 10.3456 3.43201 9.90829L3.43403 9.9027H2.3122C2.11111 9.90269 1.93259 9.77072 1.86899 9.57507L1.55754 8.61673C1.4567 8.30643 1.68185 7.98603 2.00074 7.98603H4.13481L4.44059 7.14972C4.79845 6.17091 5.4304 5.33883 6.26815 4.74339C7.10585 4.14798 8.08738 3.83325 9.10662 3.83325H13.8931C14.9123 3.83325 15.8939 4.14794 16.7316 4.74339C17.5693 5.33883 18.2013 6.17091 18.5592 7.14972L18.8649 7.98603ZM9.1066 6.38881C8.07381 6.38881 7.13624 7.05521 6.77358 8.04705L6.21191 9.58326H16.7878L16.2261 8.04705C15.8635 7.05521 14.9259 6.38881 13.8931 6.38881H9.1066ZM4.95924 14.3749C4.27119 14.3749 3.71341 13.8028 3.71341 13.0971C3.71341 12.3914 4.27119 11.8194 4.95924 11.8194C5.64729 11.8194 6.82799 13.0303 6.82799 13.736C6.82799 14.3877 5.82111 14.3806 5.12513 14.3757C5.06745 14.3753 5.0119 14.3749 4.95924 14.3749ZM17.8746 14.3757C17.9323 14.3753 17.9878 14.3749 18.0405 14.3749C18.7285 14.3749 19.2863 13.8028 19.2863 13.0971C19.2863 12.3914 18.7285 11.8194 18.0405 11.8194C17.3524 11.8194 16.1717 13.0303 16.1717 13.736C16.1717 14.3877 17.1786 14.3806 17.8746 14.3757Z" fill="white"/>
</mask>
<g mask="url(#mask0_0_1330)">
<rect width="23" height="23" fill="white"/>
</g>
</svg>
