<svg width="23" height="23" viewBox="0 0 23 23" fill="none" xmlns="http://www.w3.org/2000/svg">
<rect width="23" height="23" fill="#FF0000" fill-opacity="0.01"/>
<path fill-rule="evenodd" clip-rule="evenodd" d="M3.5332 3.83325H19.9332C20.7804 3.83325 21.4665 4.51942 21.4665 5.36659V17.6333C21.4665 18.4804 20.7804 19.1666 19.9332 19.1666H18.3999V18.7833C18.3999 18.1485 17.8847 17.6333 17.2499 17.6333C16.6151 17.6333 16.0999 18.1485 16.0999 18.7833V19.1666H6.89987V18.7833C6.89987 18.1485 6.38467 17.6333 5.74987 17.6333C5.11507 17.6333 4.59987 18.1485 4.59987 18.7833V19.1666H3.06654C2.21937 19.1666 1.5332 18.4804 1.5332 17.6333V5.83325C1.5332 4.72868 2.42863 3.83325 3.5332 3.83325ZM5.89828 13.1427C5.40694 13.3632 4.84205 13.6168 4.59987 14.5666H10.734C10.4918 13.6168 9.9269 13.3632 9.43556 13.1427C9.07143 12.9792 8.74769 12.8339 8.62564 12.4368V11.7445C8.76977 11.6678 9.1807 11.1373 9.22364 10.7233C9.33634 10.7141 9.5142 10.6014 9.56634 10.1575C9.59394 9.91905 9.482 9.78488 9.41454 9.74272C9.41454 9.74272 9.5832 9.39542 9.5832 8.97605C9.5832 8.13579 9.27884 7.41895 8.62487 7.41895C8.62487 7.41895 8.39794 6.89992 7.66654 6.89992C6.31184 6.89992 5.74987 7.84139 5.75064 8.97605C5.75064 9.35862 5.9193 9.74272 5.9193 9.74272C5.85107 9.78488 5.73914 9.91905 5.7675 10.1575C5.81964 10.6014 5.9975 10.7141 6.1102 10.7233C6.15314 11.1373 6.56407 11.6678 6.7082 11.7445V12.4368C6.58615 12.8339 6.26241 12.9792 5.89828 13.1427ZM17.6332 13.7999H13.0332C12.61 13.7999 12.2665 13.4565 12.2665 13.0333C12.2665 12.6101 12.61 12.2666 13.0332 12.2666H17.6332C18.0564 12.2666 18.3999 12.6101 18.3999 13.0333C18.3999 13.4565 18.0564 13.7999 17.6332 13.7999ZM13.0332 10.7333H17.6332C18.0564 10.7333 18.3999 10.3898 18.3999 9.96659C18.3999 9.54339 18.0564 9.19992 17.6332 9.19992H13.0332C12.61 9.19992 12.2665 9.54339 12.2665 9.96659C12.2665 10.3898 12.61 10.7333 13.0332 10.7333Z" fill="black"/>
<mask id="mask0_0_1329" style="mask-type:luminance" maskUnits="userSpaceOnUse" x="1" y="3" width="21" height="17">
<path fill-rule="evenodd" clip-rule="evenodd" d="M3.5332 3.83325H19.9332C20.7804 3.83325 21.4665 4.51942 21.4665 5.36659V17.6333C21.4665 18.4804 20.7804 19.1666 19.9332 19.1666H18.3999V18.7833C18.3999 18.1485 17.8847 17.6333 17.2499 17.6333C16.6151 17.6333 16.0999 18.1485 16.0999 18.7833V19.1666H6.89987V18.7833C6.89987 18.1485 6.38467 17.6333 5.74987 17.6333C5.11507 17.6333 4.59987 18.1485 4.59987 18.7833V19.1666H3.06654C2.21937 19.1666 1.5332 18.4804 1.5332 17.6333V5.83325C1.5332 4.72868 2.42863 3.83325 3.5332 3.83325ZM5.89828 13.1427C5.40694 13.3632 4.84205 13.6168 4.59987 14.5666H10.734C10.4918 13.6168 9.9269 13.3632 9.43556 13.1427C9.07143 12.9792 8.74769 12.8339 8.62564 12.4368V11.7445C8.76977 11.6678 9.1807 11.1373 9.22364 10.7233C9.33634 10.7141 9.5142 10.6014 9.56634 10.1575C9.59394 9.91905 9.482 9.78488 9.41454 9.74272C9.41454 9.74272 9.5832 9.39542 9.5832 8.97605C9.5832 8.13579 9.27884 7.41895 8.62487 7.41895C8.62487 7.41895 8.39794 6.89992 7.66654 6.89992C6.31184 6.89992 5.74987 7.84139 5.75064 8.97605C5.75064 9.35862 5.9193 9.74272 5.9193 9.74272C5.85107 9.78488 5.73914 9.91905 5.7675 10.1575C5.81964 10.6014 5.9975 10.7141 6.1102 10.7233C6.15314 11.1373 6.56407 11.6678 6.7082 11.7445V12.4368C6.58615 12.8339 6.26241 12.9792 5.89828 13.1427ZM17.6332 13.7999H13.0332C12.61 13.7999 12.2665 13.4565 12.2665 13.0333C12.2665 12.6101 12.61 12.2666 13.0332 12.2666H17.6332C18.0564 12.2666 18.3999 12.6101 18.3999 13.0333C18.3999 13.4565 18.0564 13.7999 17.6332 13.7999ZM13.0332 10.7333H17.6332C18.0564 10.7333 18.3999 10.3898 18.3999 9.96659C18.3999 9.54339 18.0564 9.19992 17.6332 9.19992H13.0332C12.61 9.19992 12.2665 9.54339 12.2665 9.96659C12.2665 10.3898 12.61 10.7333 13.0332 10.7333Z" fill="white"/>
</mask>
<g mask="url(#mask0_0_1329)">
<rect width="23" height="23" fill="white"/>
</g>
</svg>
