<svg width="23" height="23" viewBox="0 0 23 23" fill="none" xmlns="http://www.w3.org/2000/svg">
<rect width="23" height="23" fill="#FF0000" fill-opacity="0.01"/>
<path d="M20.3018 10.3407C20.6633 9.97333 20.7907 9.43454 20.6349 8.93396C20.4791 8.43338 20.0726 8.07582 19.574 8.00039L15.2118 7.33916C15.1266 7.32642 15.0521 7.27059 15.0139 7.18928L13.0635 3.06512C12.8392 2.59295 12.3876 2.30005 11.8831 2.30005C11.3786 2.30005 10.927 2.59295 10.7046 3.06512L8.75322 7.18928C8.71501 7.27059 8.64056 7.32642 8.55534 7.33916L4.19314 8.00137C3.69452 8.0768 3.28798 8.43436 3.13222 8.93494C2.97646 9.43552 3.10381 9.97431 3.46529 10.3417L6.62159 13.5518C6.68331 13.6145 6.71171 13.7056 6.69702 13.7948L5.95154 18.3284C5.86631 18.8466 6.06713 19.3609 6.47465 19.6705C6.88217 19.98 7.41311 20.0202 7.85884 19.7753L11.7606 17.6348C11.837 17.5927 11.9291 17.5927 12.0055 17.6348L15.9073 19.7753C16.1013 19.8801 16.3109 19.933 16.5205 19.933C16.7919 19.933 17.0613 19.8439 17.2925 19.6695C17.7 19.3599 17.9008 18.8456 17.8156 18.3274L17.0701 13.7938C17.0554 13.7047 17.0838 13.6136 17.1455 13.5509L20.3018 10.3407Z" fill="black"/>
<mask id="mask0_0_1327" style="mask-type:luminance" maskUnits="userSpaceOnUse" x="3" y="2" width="18" height="18">
<path d="M20.3018 10.3407C20.6633 9.97333 20.7907 9.43454 20.6349 8.93396C20.4791 8.43338 20.0726 8.07582 19.574 8.00039L15.2118 7.33916C15.1266 7.32642 15.0521 7.27059 15.0139 7.18928L13.0635 3.06512C12.8392 2.59295 12.3876 2.30005 11.8831 2.30005C11.3786 2.30005 10.927 2.59295 10.7046 3.06512L8.75322 7.18928C8.71501 7.27059 8.64056 7.32642 8.55534 7.33916L4.19314 8.00137C3.69452 8.0768 3.28798 8.43436 3.13222 8.93494C2.97646 9.43552 3.10381 9.97431 3.46529 10.3417L6.62159 13.5518C6.68331 13.6145 6.71171 13.7056 6.69702 13.7948L5.95154 18.3284C5.86631 18.8466 6.06713 19.3609 6.47465 19.6705C6.88217 19.98 7.41311 20.0202 7.85884 19.7753L11.7606 17.6348C11.837 17.5927 11.9291 17.5927 12.0055 17.6348L15.9073 19.7753C16.1013 19.8801 16.3109 19.933 16.5205 19.933C16.7919 19.933 17.0613 19.8439 17.2925 19.6695C17.7 19.3599 17.9008 18.8456 17.8156 18.3274L17.0701 13.7938C17.0554 13.7047 17.0838 13.6136 17.1455 13.5509L20.3018 10.3407Z" fill="white"/>
</mask>
<g mask="url(#mask0_0_1327)">
<rect width="23" height="23" fill="#FFD428"/>
</g>
</svg>
