<svg width="23" height="23" viewBox="0 0 23 23" fill="none" xmlns="http://www.w3.org/2000/svg">
<rect width="23" height="23" fill="#FF0000" fill-opacity="0.01"/>
<path fill-rule="evenodd" clip-rule="evenodd" d="M1.5332 11.5003C1.5332 6.00537 6.00388 1.53345 11.4999 1.53345C16.9959 1.53345 21.4667 6.00537 21.4665 11.5003C21.4665 16.9963 16.9959 21.467 11.4999 21.467C6.00388 21.467 1.5332 16.9963 1.5332 11.5003ZM18.2399 16.6718C19.3408 15.2378 20.0004 13.4444 20.0004 11.5003C20.0004 7.75743 17.5669 4.57453 14.1992 3.4431C13.9916 3.69622 13.8358 3.93957 13.8512 4.1009C14.0088 5.6807 14.804 5.34165 15.3764 5.09762C15.6287 4.99003 15.8377 4.90091 15.9297 5.00289C16.4191 5.5456 16.0429 5.92646 15.5908 6.38405C15.052 6.92944 14.4056 7.58383 14.9889 8.75118C15.5061 9.78294 16.1028 10.0705 16.9724 10.0834C17.8439 10.0975 18.1641 11.5846 18.2332 12.2011C18.3046 12.8182 18.2226 14.4039 17.9089 15.0894C17.5974 15.7706 17.9284 16.4272 18.2399 16.6718ZM10.3319 3.0843C10.2052 3.33112 9.94884 3.48668 9.6946 3.64098C9.54117 3.73409 9.38849 3.82675 9.26549 3.93874C8.96573 4.21024 8.73818 4.35113 8.54643 4.46985C8.28448 4.63203 8.08936 4.75284 7.86829 5.10878C7.70543 5.36959 7.38924 5.67915 7.0786 5.98328C6.65496 6.39803 6.24165 6.80267 6.24165 7.05975C6.24165 7.50514 6.86893 8.03192 7.18246 7.92935C7.4962 7.82636 8.3224 7.83196 8.8091 8.00285C8.87501 8.02613 8.99757 8.04941 9.15742 8.07977L9.15742 8.07977C10.1781 8.27363 12.7187 8.75618 11.7333 11.3708C11.5787 11.7824 11.1999 11.988 10.7842 12.2136C10.2292 12.5149 9.60827 12.8519 9.36703 13.7628C9.30412 13.9955 9.08589 14.9936 9.07052 15.32C9.06316 15.4631 9.0887 15.7186 9.11795 16.0113C9.19182 16.7505 9.28938 17.7266 8.94075 17.7266C8.45197 17.7266 7.13678 16.0254 7.13678 15.7171C7.13678 15.6042 7.091 15.3878 7.03296 15.1134C6.9324 14.6381 6.79501 13.9886 6.79501 13.4019C6.79501 12.9718 6.45525 12.7447 6.09138 12.5015C5.67195 12.2212 5.22048 11.9195 5.22048 11.2607C5.22048 10.6727 5.45981 10.2414 5.65659 9.88683C5.83158 9.57149 5.97294 9.31677 5.88243 9.06638C5.72305 8.61815 4.62116 8.53565 3.90811 8.48227L3.90807 8.48227C3.7795 8.47264 3.66357 8.46396 3.56809 8.45426C4.66069 5.61812 7.2325 3.51245 10.3319 3.0843ZM9.28855 19.2186C9.17219 19.3286 9.03914 19.4545 8.82654 19.5667C9.66789 19.8468 10.5655 20.0004 11.5001 20.0006C13.2304 20.0006 14.8418 19.4793 16.1871 18.5862C15.8128 17.907 14.4243 17.813 13.7214 17.8701C13.1999 17.9134 12.6347 18.1391 12.1547 18.3308C11.866 18.4461 11.6082 18.5491 11.4092 18.5926C11.2032 18.6377 11.0171 18.689 10.8398 18.7378C10.5034 18.8305 10.1989 18.9144 9.85186 18.9301C9.58171 18.9413 9.4515 19.0645 9.28855 19.2186Z" fill="#030104"/>
<mask id="mask0_0_1331" style="mask-type:luminance" maskUnits="userSpaceOnUse" x="1" y="1" width="21" height="21">
<path fill-rule="evenodd" clip-rule="evenodd" d="M1.5332 11.5003C1.5332 6.00537 6.00388 1.53345 11.4999 1.53345C16.9959 1.53345 21.4667 6.00537 21.4665 11.5003C21.4665 16.9963 16.9959 21.467 11.4999 21.467C6.00388 21.467 1.5332 16.9963 1.5332 11.5003ZM18.2399 16.6718C19.3408 15.2378 20.0004 13.4444 20.0004 11.5003C20.0004 7.75743 17.5669 4.57453 14.1992 3.4431C13.9916 3.69622 13.8358 3.93957 13.8512 4.1009C14.0088 5.6807 14.804 5.34165 15.3764 5.09762C15.6287 4.99003 15.8377 4.90091 15.9297 5.00289C16.4191 5.5456 16.0429 5.92646 15.5908 6.38405C15.052 6.92944 14.4056 7.58383 14.9889 8.75118C15.5061 9.78294 16.1028 10.0705 16.9724 10.0834C17.8439 10.0975 18.1641 11.5846 18.2332 12.2011C18.3046 12.8182 18.2226 14.4039 17.9089 15.0894C17.5974 15.7706 17.9284 16.4272 18.2399 16.6718ZM10.3319 3.0843C10.2052 3.33112 9.94884 3.48668 9.6946 3.64098C9.54117 3.73409 9.38849 3.82675 9.26549 3.93874C8.96573 4.21024 8.73818 4.35113 8.54643 4.46985C8.28448 4.63203 8.08936 4.75284 7.86829 5.10878C7.70543 5.36959 7.38924 5.67915 7.0786 5.98328C6.65496 6.39803 6.24165 6.80267 6.24165 7.05975C6.24165 7.50514 6.86893 8.03192 7.18246 7.92935C7.4962 7.82636 8.3224 7.83196 8.8091 8.00285C8.87501 8.02613 8.99757 8.04941 9.15742 8.07977L9.15742 8.07977C10.1781 8.27363 12.7187 8.75618 11.7333 11.3708C11.5787 11.7824 11.1999 11.988 10.7842 12.2136C10.2292 12.5149 9.60827 12.8519 9.36703 13.7628C9.30412 13.9955 9.08589 14.9936 9.07052 15.32C9.06316 15.4631 9.0887 15.7186 9.11795 16.0113C9.19182 16.7505 9.28938 17.7266 8.94075 17.7266C8.45197 17.7266 7.13678 16.0254 7.13678 15.7171C7.13678 15.6042 7.091 15.3878 7.03296 15.1134C6.9324 14.6381 6.79501 13.9886 6.79501 13.4019C6.79501 12.9718 6.45525 12.7447 6.09138 12.5015C5.67195 12.2212 5.22048 11.9195 5.22048 11.2607C5.22048 10.6727 5.45981 10.2414 5.65659 9.88683C5.83158 9.57149 5.97294 9.31677 5.88243 9.06638C5.72305 8.61815 4.62116 8.53565 3.90811 8.48227L3.90807 8.48227C3.7795 8.47264 3.66357 8.46396 3.56809 8.45426C4.66069 5.61812 7.2325 3.51245 10.3319 3.0843ZM9.28855 19.2186C9.17219 19.3286 9.03914 19.4545 8.82654 19.5667C9.66789 19.8468 10.5655 20.0004 11.5001 20.0006C13.2304 20.0006 14.8418 19.4793 16.1871 18.5862C15.8128 17.907 14.4243 17.813 13.7214 17.8701C13.1999 17.9134 12.6347 18.1391 12.1547 18.3308C11.866 18.4461 11.6082 18.5491 11.4092 18.5926C11.2032 18.6377 11.0171 18.689 10.8398 18.7378C10.5034 18.8305 10.1989 18.9144 9.85186 18.9301C9.58171 18.9413 9.4515 19.0645 9.28855 19.2186Z" fill="white"/>
</mask>
<g mask="url(#mask0_0_1331)">
<rect width="23" height="23" fill="white"/>
</g>
</svg>
