<svg width="23" height="23" viewBox="0 0 23 23" fill="none" xmlns="http://www.w3.org/2000/svg">
<rect width="23" height="23" fill="#FF0000" fill-opacity="0.01"/>
<path fill-rule="evenodd" clip-rule="evenodd" d="M17.6006 6.12665C17.6006 5.28487 18.2958 4.6001 19.1504 4.6001C20.005 4.6001 20.7002 5.28487 20.7002 6.12665C20.7002 6.80749 20.2424 7.37882 19.6163 7.575L18.7024 14.7771H5.06476L4.15079 7.575C3.52471 7.37882 3.06689 6.80749 3.06689 6.12665C3.06689 5.28487 3.7621 4.6001 4.6167 4.6001C5.4713 4.6001 6.1665 5.28487 6.1665 6.12665C6.1665 6.60113 5.94099 7.02042 5.59521 7.30056L8.26735 9.52708L10.905 7.30056C10.5593 7.02042 10.3338 6.60113 10.3338 6.12665C10.3338 5.28487 11.029 4.6001 11.8836 4.6001C12.7382 4.6001 13.4334 5.28487 13.4334 6.12665C13.4334 6.60113 13.2079 7.02042 12.8621 7.30056L15.4998 9.52708L18.1719 7.30056C17.8261 7.02042 17.6006 6.60113 17.6006 6.12665ZM7.23415 12.7417C7.23415 13.0227 7.46545 13.2505 7.75075 13.2505C8.03605 13.2505 8.26735 13.0227 8.26735 12.7417C8.26735 12.4606 8.03605 12.2328 7.75075 12.2328C7.46545 12.2328 7.23415 12.4606 7.23415 12.7417ZM11.8836 13.7594C11.029 13.7594 10.3338 13.0746 10.3338 12.2328C10.3338 11.3911 11.029 10.7063 11.8836 10.7063C12.7382 10.7063 13.4334 11.3911 13.4334 12.2328C13.4334 13.0746 12.7382 13.7594 11.8836 13.7594ZM15.4998 12.7417C15.4998 13.0227 15.7311 13.2505 16.0164 13.2505C16.3017 13.2505 16.533 13.0227 16.533 12.7417C16.533 12.4606 16.3017 12.2328 16.0164 12.2328C15.7311 12.2328 15.4998 12.4606 15.4998 12.7417ZM18.3229 15.8886H5.84386C5.3164 15.8886 4.88883 16.3166 4.88883 16.8447C4.88883 17.3727 5.3164 17.8009 5.84386 17.8009H18.3229C18.8504 17.8009 19.278 17.3727 19.278 16.8447C19.278 16.3166 18.8504 15.8886 18.3229 15.8886ZM12.4713 12.5781C12.4713 12.8713 12.2082 13.1089 11.8835 13.1089C11.5589 13.1089 11.2958 12.8713 11.2958 12.5781C11.2958 12.285 11.5589 12.0473 11.8835 12.0473C12.2082 12.0473 12.4713 12.285 12.4713 12.5781Z" fill="white"/>
<mask id="mask0_0_1333" style="mask-type:luminance" maskUnits="userSpaceOnUse" x="3" y="4" width="18" height="14">
<path fill-rule="evenodd" clip-rule="evenodd" d="M17.6006 6.12665C17.6006 5.28487 18.2958 4.6001 19.1504 4.6001C20.005 4.6001 20.7002 5.28487 20.7002 6.12665C20.7002 6.80749 20.2424 7.37882 19.6163 7.575L18.7024 14.7771H5.06476L4.15079 7.575C3.52471 7.37882 3.06689 6.80749 3.06689 6.12665C3.06689 5.28487 3.7621 4.6001 4.6167 4.6001C5.4713 4.6001 6.1665 5.28487 6.1665 6.12665C6.1665 6.60113 5.94099 7.02042 5.59521 7.30056L8.26735 9.52708L10.905 7.30056C10.5593 7.02042 10.3338 6.60113 10.3338 6.12665C10.3338 5.28487 11.029 4.6001 11.8836 4.6001C12.7382 4.6001 13.4334 5.28487 13.4334 6.12665C13.4334 6.60113 13.2079 7.02042 12.8621 7.30056L15.4998 9.52708L18.1719 7.30056C17.8261 7.02042 17.6006 6.60113 17.6006 6.12665ZM7.23415 12.7417C7.23415 13.0227 7.46545 13.2505 7.75075 13.2505C8.03605 13.2505 8.26735 13.0227 8.26735 12.7417C8.26735 12.4606 8.03605 12.2328 7.75075 12.2328C7.46545 12.2328 7.23415 12.4606 7.23415 12.7417ZM11.8836 13.7594C11.029 13.7594 10.3338 13.0746 10.3338 12.2328C10.3338 11.3911 11.029 10.7063 11.8836 10.7063C12.7382 10.7063 13.4334 11.3911 13.4334 12.2328C13.4334 13.0746 12.7382 13.7594 11.8836 13.7594ZM15.4998 12.7417C15.4998 13.0227 15.7311 13.2505 16.0164 13.2505C16.3017 13.2505 16.533 13.0227 16.533 12.7417C16.533 12.4606 16.3017 12.2328 16.0164 12.2328C15.7311 12.2328 15.4998 12.4606 15.4998 12.7417ZM18.3229 15.8886H5.84386C5.3164 15.8886 4.88883 16.3166 4.88883 16.8447C4.88883 17.3727 5.3164 17.8009 5.84386 17.8009H18.3229C18.8504 17.8009 19.278 17.3727 19.278 16.8447C19.278 16.3166 18.8504 15.8886 18.3229 15.8886ZM12.4713 12.5781C12.4713 12.8713 12.2082 13.1089 11.8835 13.1089C11.5589 13.1089 11.2958 12.8713 11.2958 12.5781C11.2958 12.285 11.5589 12.0473 11.8835 12.0473C12.2082 12.0473 12.4713 12.285 12.4713 12.5781Z" fill="white"/>
</mask>
<g mask="url(#mask0_0_1333)">
<rect width="23" height="23" fill="white"/>
</g>
</svg>
