<svg width="23" height="23" viewBox="0 0 23 23" fill="none" xmlns="http://www.w3.org/2000/svg">
<rect width="23" height="23" fill="#FF0000" fill-opacity="0.01"/>
<path fill-rule="evenodd" clip-rule="evenodd" d="M11.4998 2.30005C6.41936 2.30005 2.2998 6.4196 2.2998 11.5C2.2998 16.5805 6.41936 20.7 11.4998 20.7C16.5802 20.7 20.6998 16.5805 20.6998 11.5C20.6998 6.4196 16.5802 2.30005 11.4998 2.30005ZM11.4998 17.25C10.865 17.25 10.3498 16.7348 10.3498 16.1C10.3498 15.4652 10.865 14.95 11.4998 14.95C12.1346 14.95 12.6498 15.4652 12.6498 16.1C12.6498 16.7348 12.1346 17.25 11.4998 17.25ZM12.2665 13.0334C12.2665 12.6592 12.5782 12.3516 13.0853 11.8834L13.0854 11.8833C13.7457 11.273 14.5665 10.5145 14.5665 9.20005C14.5665 7.50827 13.1916 6.13338 11.4998 6.13338C9.80803 6.13338 8.43314 7.50827 8.43314 9.20005H9.96647C9.96647 8.35467 10.6544 7.66672 11.4998 7.66672C12.3452 7.66672 13.0331 8.35467 13.0331 9.20005C13.0331 9.81236 12.657 10.1906 12.0446 10.7569L12.0423 10.759C11.459 11.2984 10.7331 11.9696 10.7331 13.0334H12.2665Z" fill="black"/>
<mask id="mask0_0_1334" style="mask-type:luminance" maskUnits="userSpaceOnUse" x="2" y="2" width="19" height="19">
<path fill-rule="evenodd" clip-rule="evenodd" d="M11.4998 2.30005C6.41936 2.30005 2.2998 6.4196 2.2998 11.5C2.2998 16.5805 6.41936 20.7 11.4998 20.7C16.5802 20.7 20.6998 16.5805 20.6998 11.5C20.6998 6.4196 16.5802 2.30005 11.4998 2.30005ZM11.4998 17.25C10.865 17.25 10.3498 16.7348 10.3498 16.1C10.3498 15.4652 10.865 14.95 11.4998 14.95C12.1346 14.95 12.6498 15.4652 12.6498 16.1C12.6498 16.7348 12.1346 17.25 11.4998 17.25ZM12.2665 13.0334C12.2665 12.6592 12.5782 12.3516 13.0853 11.8834L13.0854 11.8833C13.7457 11.273 14.5665 10.5145 14.5665 9.20005C14.5665 7.50827 13.1916 6.13338 11.4998 6.13338C9.80803 6.13338 8.43314 7.50827 8.43314 9.20005H9.96647C9.96647 8.35467 10.6544 7.66672 11.4998 7.66672C12.3452 7.66672 13.0331 8.35467 13.0331 9.20005C13.0331 9.81236 12.657 10.1906 12.0446 10.7569L12.0423 10.759C11.459 11.2984 10.7331 11.9696 10.7331 13.0334H12.2665Z" fill="white"/>
</mask>
<g mask="url(#mask0_0_1334)">
<rect width="23" height="23" fill="white"/>
</g>
</svg>
