<svg width="104" height="75" viewBox="0 0 104 75" fill="none" xmlns="http://www.w3.org/2000/svg">
<path fill-rule="evenodd" clip-rule="evenodd" d="M66.655 42.0015L52.0002 66.2704L37.345 42C30.8665 46.3926 27 53.8308 27 61.9014V75H77V61.9014C77.0004 53.8305 73.1335 46.3922 66.655 42.0015Z" fill="#333333"/>
<path d="M33 27C33 37.4774 41.5226 46 52 46C62.4774 46 71 37.4774 71 27C71 16.524 62.4774 8 52 8C41.5226 8 33 16.5244 33 27Z" fill="#333333"/>
<path fill-rule="evenodd" clip-rule="evenodd" d="M29.1049 33.946C27.7539 34.3522 26.3847 34.5586 25.0371 34.5586C16.8951 34.5586 10.2688 27.5782 10.2688 19.0004C10.2688 10.4211 16.8948 3.44213 25.0371 3.44213C29.4823 3.44213 33.6481 5.5246 36.4695 9.15756L39 6.97714C35.5546 2.54365 30.4658 0 25.0354 0C15.0899 0 7 8.52436 7 19C7 29.4774 15.0899 38 25.0354 38C26.687 38 28.3567 37.7488 30 37.2548L29.1049 33.946Z" fill="#333333"/>
<path fill-rule="evenodd" clip-rule="evenodd" d="M3.38467 52.9014C3.38467 46.0254 6.73202 39.6869 12.3386 35.946L10.5041 33C3.92627 37.3929 0 44.8308 0 52.9014V66H22V62.4971H3.38467V52.9014Z" fill="#333333"/>
<path fill-rule="evenodd" clip-rule="evenodd" d="M97 18.9989C97 8.52351 88.9097 0 78.9636 0C73.5346 0 68.4456 2.5435 65 6.97674L67.5306 9.15704C70.3521 5.52429 74.5196 3.44193 78.9636 3.44193C87.1061 3.44193 93.7328 10.4205 93.7328 18.9993C93.7328 27.5763 87.1064 34.5566 78.9636 34.5566C77.6156 34.5566 76.2467 34.3503 74.8956 33.9441L73.9954 37.2515C75.6388 37.747 77.3103 38 78.9636 38C88.9097 37.9978 97 29.4758 97 18.9989Z" fill="#333333"/>
<path fill-rule="evenodd" clip-rule="evenodd" d="M93.8029 33L92.022 35.9462C97.4647 39.6872 100.714 46.0262 100.714 52.9006V62.4969H84.2858H81V66H104V52.9006C104 44.8293 100.188 37.391 93.8029 33Z" fill="#333333"/>
</svg>
