<svg width="300" height="300" viewBox="0 0 300 300" fill="none" xmlns="http://www.w3.org/2000/svg">
<path fill-rule="evenodd" clip-rule="evenodd" d="M150 300C232.843 300 300 232.843 300 150C300 67.1573 232.843 0 150 0C67.1573 0 0 67.1573 0 150C0 232.843 67.1573 300 150 300Z" fill="url(#paint0_linear_1197_2046)" fill-opacity="0.15"/>
<path fill-rule="evenodd" clip-rule="evenodd" d="M150 284C224.006 284 284 224.006 284 150C284 75.9938 224.006 16 150 16C75.9938 16 16 75.9938 16 150C16 224.006 75.9938 284 150 284Z" fill="#FFD428" fill-opacity="0.2"/>
<path fill-rule="evenodd" clip-rule="evenodd" d="M150 250C205.228 250 250 205.228 250 150C250 94.7715 205.228 50 150 50C94.7715 50 50 94.7715 50 150C50 205.228 94.7715 250 150 250Z" fill="#FFD428"/>
<g filter="url(#filter0_d_1197_2046)">
<path fill-rule="evenodd" clip-rule="evenodd" d="M150 214C154.972 214 178.648 184.139 184.485 174.627C193.459 160.005 199 151.354 199 135.212C199 108.033 177.062 86 150 86C122.938 86 101 108.033 101 135.212C101 151.438 106.134 160.031 115.078 174.627C121.312 184.799 145.028 214 150 214Z" fill="#FC4974"/>
<path fill-rule="evenodd" clip-rule="evenodd" d="M150 214C154.972 214 178.648 184.139 184.485 174.627C193.459 160.005 199 151.354 199 135.212C199 108.033 177.062 86 150 86C122.938 86 101 108.033 101 135.212C101 151.438 106.134 160.031 115.078 174.627C121.312 184.799 145.028 214 150 214Z" stroke="white" stroke-width="2"/>
</g>
<path fill-rule="evenodd" clip-rule="evenodd" d="M149.5 160C163.031 160 174 149.031 174 135.5C174 121.969 163.031 111 149.5 111C135.969 111 125 121.969 125 135.5C125 149.031 135.969 160 149.5 160Z" fill="white"/>
<defs>
<filter id="filter0_d_1197_2046" x="96" y="83" width="108" height="138" filterUnits="userSpaceOnUse" color-interpolation-filters="sRGB">
<feFlood flood-opacity="0" result="BackgroundImageFix"/>
<feColorMatrix in="SourceAlpha" type="matrix" values="0 0 0 0 0 0 0 0 0 0 0 0 0 0 0 0 0 0 127 0" result="hardAlpha"/>
<feOffset dy="2"/>
<feGaussianBlur stdDeviation="2"/>
<feColorMatrix type="matrix" values="0 0 0 0 0 0 0 0 0 0 0 0 0 0 0 0 0 0 0.3 0"/>
<feBlend mode="normal" in2="BackgroundImageFix" result="effect1_dropShadow_1197_2046"/>
<feBlend mode="normal" in="SourceGraphic" in2="effect1_dropShadow_1197_2046" result="shape"/>
</filter>
<linearGradient id="paint0_linear_1197_2046" x1="150" y1="0" x2="60" y2="294" gradientUnits="userSpaceOnUse">
<stop stop-color="#FFD428"/>
<stop offset="1" stop-color="#FFD428" stop-opacity="0.86"/>
</linearGradient>
</defs>
</svg>
