<svg width="304" height="68" viewBox="0 0 304 68" fill="none" xmlns="http://www.w3.org/2000/svg">
<rect y="63" width="60" height="5" rx="2.5" fill="#D8D8D8"/>
<rect x="81" y="63" width="60" height="5" rx="2.5" fill="#D8D8D8"/>
<rect x="163" y="63" width="60" height="5" rx="2.5" fill="#D8D8D8"/>
<rect x="244" y="63" width="60" height="5" rx="2.5" fill="#D8D8D8"/>
<path d="M33.0664 34H37.3906V29.2012H40.8008V25.4922H37.3906V8.63477H30.9395C25.4375 16.6328 22.6074 21.1504 20.4102 25.2988V29.2012H33.0664V34ZM24.5234 25.4746C26.5449 21.6777 28.9707 17.9336 33.0664 11.9922H33.1367V25.5977H24.5234V25.4746Z" fill="#242A37"/>
<path d="M111.281 34.5098C116.906 34.5098 120.791 30.8887 120.791 25.6152C120.791 20.6758 117.293 17.1074 112.441 17.1074C109.928 17.1074 107.854 18.127 106.799 19.7617H106.693L107.344 12.3438H119.297V8.63477H103.758L102.439 23.084H106.553C107.484 21.502 109.277 20.5527 111.352 20.5527C114.322 20.5527 116.414 22.6973 116.414 25.7383C116.414 28.7266 114.34 30.8359 111.316 30.8359C108.645 30.8359 106.588 29.2188 106.307 26.8633H102.053C102.246 31.3633 106.043 34.5098 111.281 34.5098Z" fill="#242A37"/>
<path fill-rule="evenodd" clip-rule="evenodd" d="M193 29C196.866 29 200 25.866 200 22C200 18.134 196.866 15 193 15C189.134 15 186 18.134 186 22C186 25.866 189.134 29 193 29Z" fill="#242E42"/>
<path fill-rule="evenodd" clip-rule="evenodd" d="M274 29C277.866 29 281 25.866 281 22C281 18.134 277.866 15 274 15C270.134 15 267 18.134 267 22C267 25.866 270.134 29 274 29Z" fill="#242E42"/>
</svg>
