<svg width="24" height="24" viewBox="0 0 24 24" fill="none" xmlns="http://www.w3.org/2000/svg">
<rect width="24" height="24" fill="#FF0000" fill-opacity="0.01"/>
<path fill-rule="evenodd" clip-rule="evenodd" d="M15.7522 20.1923C14.603 20.6631 13.3337 20.9262 11.9999 20.9262C6.69683 20.9262 2.3999 16.7816 2.3999 11.6631C2.3999 6.54925 6.69683 2.40002 11.9999 2.40002C17.303 2.40002 21.5999 6.54925 21.5907 11.6723C21.5907 13.5139 21.0322 15.2308 20.0676 16.6754C20.0261 16.7262 19.9891 16.7862 19.9522 16.8462C19.8414 17.0446 19.7722 17.2754 19.7722 17.52L20.7922 21.6L16.9153 20.1739C16.7445 20.1 16.5553 20.0631 16.3568 20.0631C16.1768 20.0631 16.0014 20.0954 15.8399 20.1554C15.8399 20.16 15.8353 20.16 15.8307 20.16C15.803 20.1693 15.7799 20.1785 15.7522 20.1923ZM17.9076 12C17.9076 11.1831 17.2476 10.5231 16.4307 10.5231C15.6137 10.5231 14.9537 11.1831 14.9537 12C14.9537 12.8169 15.6137 13.4769 16.4307 13.4769C17.2476 13.4769 17.9076 12.8169 17.9076 12ZM11.9999 10.5231C12.8168 10.5231 13.4768 11.1831 13.4768 12C13.4768 12.8169 12.8168 13.4769 11.9999 13.4769C11.183 13.4769 10.523 12.8169 10.523 12C10.523 11.1831 11.183 10.5231 11.9999 10.5231ZM9.04604 12C9.04604 11.1831 8.38604 10.5231 7.56911 10.5231C6.75219 10.5231 6.09219 11.1831 6.09219 12C6.09219 12.8169 6.75219 13.4769 7.56911 13.4769C8.38604 13.4769 9.04604 12.8169 9.04604 12Z" fill="black"/>
<mask id="mask0_0_650" style="mask-type:luminance" maskUnits="userSpaceOnUse" x="2" y="2" width="20" height="20">
<path fill-rule="evenodd" clip-rule="evenodd" d="M15.7522 20.1923C14.603 20.6631 13.3337 20.9262 11.9999 20.9262C6.69683 20.9262 2.3999 16.7816 2.3999 11.6631C2.3999 6.54925 6.69683 2.40002 11.9999 2.40002C17.303 2.40002 21.5999 6.54925 21.5907 11.6723C21.5907 13.5139 21.0322 15.2308 20.0676 16.6754C20.0261 16.7262 19.9891 16.7862 19.9522 16.8462C19.8414 17.0446 19.7722 17.2754 19.7722 17.52L20.7922 21.6L16.9153 20.1739C16.7445 20.1 16.5553 20.0631 16.3568 20.0631C16.1768 20.0631 16.0014 20.0954 15.8399 20.1554C15.8399 20.16 15.8353 20.16 15.8307 20.16C15.803 20.1693 15.7799 20.1785 15.7522 20.1923ZM17.9076 12C17.9076 11.1831 17.2476 10.5231 16.4307 10.5231C15.6137 10.5231 14.9537 11.1831 14.9537 12C14.9537 12.8169 15.6137 13.4769 16.4307 13.4769C17.2476 13.4769 17.9076 12.8169 17.9076 12ZM11.9999 10.5231C12.8168 10.5231 13.4768 11.1831 13.4768 12C13.4768 12.8169 12.8168 13.4769 11.9999 13.4769C11.183 13.4769 10.523 12.8169 10.523 12C10.523 11.1831 11.183 10.5231 11.9999 10.5231ZM9.04604 12C9.04604 11.1831 8.38604 10.5231 7.56911 10.5231C6.75219 10.5231 6.09219 11.1831 6.09219 12C6.09219 12.8169 6.75219 13.4769 7.56911 13.4769C8.38604 13.4769 9.04604 12.8169 9.04604 12Z" fill="white"/>
</mask>
<g mask="url(#mask0_0_650)">
<rect width="24" height="24" fill="white"/>
</g>
</svg>
