<svg width="24" height="24" viewBox="0 0 24 24" fill="none" xmlns="http://www.w3.org/2000/svg">
<rect width="24" height="24" fill="#FF0000" fill-opacity="0.01"/>
<path d="M10.2181 6.92101C9.97367 4.10885 7.03991 2.72901 6.91575 2.67269C6.79927 2.61765 6.66871 2.60101 6.54327 2.62277C3.15639 3.18469 2.64695 5.15589 2.62647 5.23781C2.59831 5.35301 2.60343 5.47205 2.63927 5.58341C6.67895 18.1172 15.0745 20.4404 17.8341 21.2045C18.0466 21.2634 18.222 21.3108 18.3551 21.3543C18.4191 21.3761 18.4857 21.385 18.5522 21.385C18.6431 21.385 18.734 21.3658 18.8172 21.3274C18.9017 21.289 20.8959 20.3495 21.3836 17.2852C21.4053 17.1521 21.3836 17.0138 21.3221 16.8935C21.2786 16.809 20.2354 14.8237 17.3426 14.1223C17.1404 14.0698 16.933 14.1236 16.7769 14.2567C15.8642 15.0362 14.6034 15.8669 14.0594 15.9527C10.4127 14.1697 8.37623 10.7482 8.29943 10.0993C8.25463 9.73445 9.09047 8.45317 10.0517 7.41125C10.1733 7.27941 10.2348 7.10021 10.2181 6.92101Z" fill="black"/>
<mask id="mask0_0_654" style="mask-type:luminance" maskUnits="userSpaceOnUse" x="2" y="2" width="20" height="20">
<path d="M10.2181 6.92101C9.97367 4.10885 7.03991 2.72901 6.91575 2.67269C6.79927 2.61765 6.66871 2.60101 6.54327 2.62277C3.15639 3.18469 2.64695 5.15589 2.62647 5.23781C2.59831 5.35301 2.60343 5.47205 2.63927 5.58341C6.67895 18.1172 15.0745 20.4404 17.8341 21.2045C18.0466 21.2634 18.222 21.3108 18.3551 21.3543C18.4191 21.3761 18.4857 21.385 18.5522 21.385C18.6431 21.385 18.734 21.3658 18.8172 21.3274C18.9017 21.289 20.8959 20.3495 21.3836 17.2852C21.4053 17.1521 21.3836 17.0138 21.3221 16.8935C21.2786 16.809 20.2354 14.8237 17.3426 14.1223C17.1404 14.0698 16.933 14.1236 16.7769 14.2567C15.8642 15.0362 14.6034 15.8669 14.0594 15.9527C10.4127 14.1697 8.37623 10.7482 8.29943 10.0993C8.25463 9.73445 9.09047 8.45317 10.0517 7.41125C10.1733 7.27941 10.2348 7.10021 10.2181 6.92101Z" fill="white"/>
</mask>
<g mask="url(#mask0_0_654)">
<rect width="24" height="24" fill="white"/>
</g>
</svg>
