<svg width="24" height="24" viewBox="0 0 24 24" fill="none" xmlns="http://www.w3.org/2000/svg">
<rect width="24" height="24" fill="#FF0000" fill-opacity="0.01"/>
<path fill-rule="evenodd" clip-rule="evenodd" d="M19.525 5.49995H15.5V4.8962C15.5 3.95939 14.7406 3.19995 13.8037 3.19995H10.2962C9.35944 3.19995 8.6 3.95939 8.6 4.8962V5.49995H4.575C4.25744 5.49995 4 5.75739 4 6.07495C4 6.39251 4.25744 6.64995 4.575 6.64995H5.63875L6.44375 19.6449C6.47382 20.712 7.33174 21.5699 8.39875 21.5999H15.7012C16.7795 21.585 17.6543 20.7228 17.685 19.6449L18.4612 6.64995H19.525C19.8426 6.64995 20.1 6.39251 20.1 6.07495C20.1 5.75739 19.8426 5.49995 19.525 5.49995ZM9.75 4.8962C9.75 4.59452 9.99456 4.34995 10.2962 4.34995H13.8038C13.9486 4.34995 14.0876 4.4075 14.19 4.50994C14.2924 4.61239 14.35 4.75133 14.35 4.8962V5.49995H9.75V4.8962ZM9.75001 19.3H9.77876C9.93133 19.2925 10.0747 19.2247 10.1771 19.1114C10.2796 18.9981 10.3328 18.8488 10.325 18.6962L9.75001 8.3462C9.73413 8.02864 9.46383 7.78407 9.14626 7.79995C8.8287 7.81583 8.58413 8.08614 8.60001 8.4037L9.17501 18.7537C9.19035 19.06 9.44335 19.3003 9.75001 19.3ZM12.625 18.725C12.625 19.0425 12.3676 19.3 12.05 19.3C11.7324 19.3 11.475 19.0425 11.475 18.725V8.37495C11.475 8.05739 11.7324 7.79995 12.05 7.79995C12.3676 7.79995 12.625 8.05739 12.625 8.37495V18.725ZM14.35 19.3C14.6567 19.3003 14.9097 19.06 14.925 18.7537L15.5 8.4037C15.5159 8.08614 15.2713 7.81583 14.9538 7.79995C14.6362 7.78407 14.3659 8.02864 14.35 8.3462L13.775 18.6962C13.7672 18.8488 13.8204 18.9981 13.9229 19.1114C14.0254 19.2247 14.1687 19.2925 14.3213 19.3H14.35Z" fill="#202020"/>
<mask id="mask0_0_655" style="mask-type:luminance" maskUnits="userSpaceOnUse" x="4" y="3" width="17" height="19">
<path fill-rule="evenodd" clip-rule="evenodd" d="M19.525 5.49995H15.5V4.8962C15.5 3.95939 14.7406 3.19995 13.8037 3.19995H10.2962C9.35944 3.19995 8.6 3.95939 8.6 4.8962V5.49995H4.575C4.25744 5.49995 4 5.75739 4 6.07495C4 6.39251 4.25744 6.64995 4.575 6.64995H5.63875L6.44375 19.6449C6.47382 20.712 7.33174 21.5699 8.39875 21.5999H15.7012C16.7795 21.585 17.6543 20.7228 17.685 19.6449L18.4612 6.64995H19.525C19.8426 6.64995 20.1 6.39251 20.1 6.07495C20.1 5.75739 19.8426 5.49995 19.525 5.49995ZM9.75 4.8962C9.75 4.59452 9.99456 4.34995 10.2962 4.34995H13.8038C13.9486 4.34995 14.0876 4.4075 14.19 4.50994C14.2924 4.61239 14.35 4.75133 14.35 4.8962V5.49995H9.75V4.8962ZM9.75001 19.3H9.77876C9.93133 19.2925 10.0747 19.2247 10.1771 19.1114C10.2796 18.9981 10.3328 18.8488 10.325 18.6962L9.75001 8.3462C9.73413 8.02864 9.46383 7.78407 9.14626 7.79995C8.8287 7.81583 8.58413 8.08614 8.60001 8.4037L9.17501 18.7537C9.19035 19.06 9.44335 19.3003 9.75001 19.3ZM12.625 18.725C12.625 19.0425 12.3676 19.3 12.05 19.3C11.7324 19.3 11.475 19.0425 11.475 18.725V8.37495C11.475 8.05739 11.7324 7.79995 12.05 7.79995C12.3676 7.79995 12.625 8.05739 12.625 8.37495V18.725ZM14.35 19.3C14.6567 19.3003 14.9097 19.06 14.925 18.7537L15.5 8.4037C15.5159 8.08614 15.2713 7.81583 14.9538 7.79995C14.6362 7.78407 14.3659 8.02864 14.35 8.3462L13.775 18.6962C13.7672 18.8488 13.8204 18.9981 13.9229 19.1114C14.0254 19.2247 14.1687 19.2925 14.3213 19.3H14.35Z" fill="white"/>
</mask>
<g mask="url(#mask0_0_655)">
<rect width="24" height="24" fill="white"/>
</g>
</svg>
