<svg width="18" height="19" viewBox="0 0 18 19" fill="none" xmlns="http://www.w3.org/2000/svg">
<path fill-rule="evenodd" clip-rule="evenodd" d="M3.51865 0.000180792C3.4171 0.0029028 3.32058 0.0454807 3.2495 0.118908L0.119908 3.28497C0.110313 3.294 0.101174 3.30351 0.092524 3.31346L0.0893942 3.31742C0.0535722 3.36136 0.0275482 3.41261 0.0131001 3.46766C-0.00134807 3.52271 -0.00387982 3.58027 0.00567772 3.6364V16.2294C0.00567772 16.3344 0.0468933 16.435 0.120257 16.5093C0.193621 16.5835 0.293124 16.6252 0.396877 16.6252H9.8639C10.0634 17.0217 10.3247 17.3961 10.6518 17.7277C11.4604 18.5428 12.5554 19.0003 13.6968 19C14.8382 18.9997 15.933 18.5416 16.7412 17.7262C17.5473 16.909 18 15.8016 18 14.6472C18 13.4927 17.5473 12.3854 16.7412 11.5682V11.5666C16.6439 11.4692 16.542 11.3764 16.436 11.2888V0.399104C16.4356 0.294418 16.3942 0.194161 16.3209 0.120284C16.2476 0.0464075 16.1483 0.00492889 16.0448 0.00492973V0.00334681H3.58124C3.56049 0.00059976 3.53956 -0.000458949 3.51865 0.000180792ZM3.68843 0.794862H15.1005L12.7533 3.16941H1.34123L3.68843 0.794862ZM15.6536 1.35446V10.7695C14.9294 10.3966 14.1159 10.2378 13.3064 10.3112V3.72901L15.6536 1.35446ZM0.788076 3.96092H12.524V10.4593C11.8162 10.6596 11.1713 11.0413 10.6518 11.5674C10.1111 12.116 9.72473 12.8005 9.53248 13.5503C9.34023 14.3002 9.34903 15.0884 9.55798 15.8337H0.787294L0.788076 3.96092ZM13.6976 11.0798C14.1604 11.0797 14.6187 11.1721 15.046 11.3516C15.4734 11.5312 15.8615 11.7944 16.188 12.1262C16.516 12.4567 16.7762 12.8494 16.9538 13.2819C17.1314 13.7144 17.2228 14.1781 17.2228 14.6464C17.2228 15.1147 17.1314 15.5784 16.9538 16.0108C16.7762 16.4433 16.516 16.8361 16.188 17.1666C15.8613 17.4984 15.4731 17.7617 15.0456 17.9414C14.6181 18.1212 14.1597 18.2138 13.6968 18.2139C13.2339 18.214 12.7754 18.1217 12.3478 17.9423C11.9202 17.7628 11.5318 17.4998 11.2049 17.1681C10.877 16.8373 10.6167 16.4443 10.4392 16.0116C10.2616 15.5788 10.1702 15.1149 10.1702 14.6464C10.1702 14.1778 10.2616 13.7139 10.4392 13.2812C10.6167 12.8485 10.877 12.4554 11.2049 12.1246C11.5318 11.7928 11.9204 11.5297 12.3482 11.3504C12.776 11.1711 13.2346 11.0791 13.6976 11.0798ZM1.57047 11.0846V11.8761H6.26486V11.0846H1.57047ZM13.6914 11.8872C13.5879 11.8888 13.4893 11.9319 13.4171 12.007C13.345 12.082 13.3052 12.183 13.3064 12.2877V12.4745C12.7549 12.6367 12.3347 13.1267 12.3347 13.7266C12.3347 14.4627 12.9638 15.0406 13.6976 15.0406C14.0388 15.0406 14.2766 15.282 14.2766 15.563C14.2766 15.8424 14.0419 16.0798 13.7055 16.0838C13.7008 16.0837 13.6961 16.0837 13.6914 16.0838H13.6898C13.3534 16.0806 13.1171 15.8424 13.1171 15.563C13.1249 15.0279 12.3269 15.0279 12.3347 15.563C12.3347 16.1629 12.7549 16.6513 13.3064 16.8135V17.0051C13.2986 17.5409 14.0967 17.5409 14.0888 17.0051V16.8135C14.6397 16.6513 15.059 16.1629 15.059 15.563C15.059 14.5933 14.2743 14.2419 13.6976 14.249C13.3565 14.253 13.1171 14.0076 13.1171 13.7266C13.1171 13.4512 13.3479 13.2169 13.6773 13.2074C13.6916 13.2087 13.706 13.2092 13.7203 13.209C14.0489 13.2201 14.2766 13.452 14.2766 13.7266C14.2688 14.2617 15.0668 14.2617 15.059 13.7266C15.059 13.1393 14.6271 12.7254 14.0888 12.5631V12.2877C14.0895 12.2348 14.0796 12.1823 14.0599 12.1333C14.0401 12.0843 14.0108 12.0398 13.9737 12.0025C13.9367 11.9651 13.8926 11.9357 13.8441 11.9159C13.7956 11.8961 13.7437 11.8863 13.6914 11.8872ZM1.57047 12.6676V13.4591H4.70007V12.6676H1.57047Z" fill="#50B748"/>
</svg>
