<svg width="21" height="19" viewBox="0 0 21 19" fill="none" xmlns="http://www.w3.org/2000/svg">
<path fill-rule="evenodd" clip-rule="evenodd" d="M3.71107 0.0216125C3.6108 0.0246713 3.51567 0.0666861 3.4459 0.138762L0.362565 3.2221C0.34343 3.24132 0.326381 3.26253 0.311694 3.28533C0.305896 3.2946 0.300498 3.30411 0.29551 3.31384C0.294471 3.31537 0.293433 3.3169 0.292416 3.31845C0.287342 3.32852 0.282721 3.33884 0.278549 3.34931C0.277507 3.3511 0.276481 3.35287 0.275467 3.35468C0.271415 3.36505 0.267809 3.37561 0.26467 3.38629C0.263574 3.39039 0.262548 3.39449 0.261588 3.39862C0.256501 3.41937 0.253149 3.44054 0.251567 3.46185C0.25155 3.46391 0.25155 3.46596 0.251567 3.46801C0.250738 3.47699 0.250224 3.48597 0.250026 3.49497V15.8283C0.249375 15.8842 0.260908 15.9397 0.28383 15.9907C0.306752 16.0418 0.340511 16.0872 0.38276 16.1239C0.42501 16.1605 0.47474 16.1876 0.528491 16.2031C0.582242 16.2186 0.638733 16.2222 0.694029 16.2137H7.18753V17.5958C7.18753 18.1077 7.61149 18.5324 8.12332 18.5324H19.3544C19.867 18.5324 20.2917 18.1077 20.2917 17.5958V10.9883C20.2917 10.4756 19.867 10.0532 19.3551 10.0532H16.4375V0.41164C16.4375 0.309421 16.3969 0.211418 16.3246 0.139138C16.2524 0.0668586 16.1543 0.0262232 16.0521 0.0262232H3.78815C3.76242 0.022053 3.73634 0.0205177 3.7103 0.0216125H3.71107ZM3.87834 0.796304H15.1217L12.8092 3.1088H1.56584L3.87834 0.796304ZM15.6667 1.34126V10.0525H13.3542V3.65456L15.6667 1.34206V1.34126ZM1.02086 3.87964H12.5834V10.0525H8.12409C7.61225 10.0525 7.18753 10.4757 7.18753 10.9875V15.4421H1.02086V3.87964ZM1.79169 10.8171V11.588H6.41669V10.8171H1.79169ZM8.12409 10.8233H19.3551C19.4538 10.8233 19.5209 10.8896 19.5209 10.9875V11.5941H7.95836V10.9875C7.95836 10.8896 8.02542 10.8233 8.12409 10.8233ZM1.79169 12.3596V13.1304H4.87503V12.3596H1.79169ZM7.95836 12.3657H19.5209V13.1366H7.95836V12.3657ZM7.95836 13.9074H19.5209V17.5958C19.522 17.6179 19.5184 17.6399 19.5105 17.6605C19.5026 17.6811 19.4904 17.6999 19.4748 17.7155C19.4592 17.7311 19.4404 17.7433 19.4198 17.7512C19.3992 17.7591 19.3772 17.7627 19.3551 17.7616H8.12409C8.10203 17.7627 8.07999 17.7591 8.05938 17.7512C8.03877 17.7433 8.02006 17.7311 8.00444 17.7155C7.98883 17.6999 7.97666 17.6811 7.96872 17.6605C7.96078 17.6399 7.95725 17.6179 7.95836 17.5958V13.9074ZM16.0521 14.6782C15.4185 14.6782 14.8959 15.2001 14.8959 15.8345C14.8959 16.4681 15.4185 16.9907 16.0521 16.9907C16.3481 16.9907 16.6171 16.872 16.8229 16.6863C17.033 16.8802 17.3079 16.9887 17.5938 16.9907C18.2282 16.9907 18.75 16.4681 18.75 15.8345C18.75 15.2001 18.2282 14.6782 17.5938 14.6782C17.2978 14.6782 17.0288 14.7939 16.8229 14.9804C16.6126 14.7872 16.3377 14.6795 16.0521 14.6782ZM9.11461 15.4491C9.08872 15.449 9.06289 15.4516 9.03752 15.4568C9.01293 15.4621 8.98893 15.4699 8.96584 15.4799C8.94199 15.4904 8.91925 15.5033 8.898 15.5184C8.88734 15.5256 8.87706 15.5333 8.86717 15.5415C8.85746 15.5503 8.8482 15.5596 8.83943 15.5693C8.83074 15.5784 8.8225 15.588 8.81475 15.5979C8.80677 15.608 8.79932 15.6185 8.7924 15.6294C8.78591 15.6407 8.78 15.6523 8.77468 15.6642C8.76897 15.6755 8.76382 15.687 8.75926 15.6988C8.75476 15.7112 8.7509 15.7238 8.74769 15.7366C8.74452 15.7488 8.74195 15.7611 8.73999 15.7736C8.73374 15.8116 8.73321 15.8503 8.73844 15.8884C8.74037 15.9011 8.74296 15.9138 8.74615 15.9262C8.74936 15.939 8.75322 15.9516 8.75772 15.964C8.7618 15.9755 8.76642 15.9868 8.77158 15.9979C8.7769 16.0098 8.78283 16.0213 8.78932 16.0326C8.79649 16.0435 8.8042 16.0541 8.81244 16.0642C8.82743 16.0851 8.84447 16.1045 8.86331 16.122C8.92179 16.1731 8.99433 16.2054 9.07144 16.2145C9.08422 16.2165 9.09708 16.2177 9.10999 16.2184C9.11152 16.2189 9.11306 16.2194 9.11461 16.2199H13.7396C13.7655 16.2194 13.7914 16.2163 13.8167 16.2107C13.8289 16.2077 13.841 16.204 13.8529 16.1998C13.8652 16.1961 13.8773 16.1917 13.8892 16.1868C13.901 16.1812 13.9126 16.175 13.9238 16.1683C13.9463 16.156 13.9675 16.1415 13.987 16.1251C13.997 16.1163 14.0065 16.1071 14.0156 16.0973C14.0237 16.0882 14.0314 16.0787 14.0387 16.0688C14.0624 16.0384 14.0813 16.0046 14.095 15.9686C14.0997 15.9567 14.1038 15.9446 14.1073 15.9324C14.1137 15.9071 14.1176 15.8813 14.1189 15.8553C14.1195 15.8425 14.1195 15.8296 14.1189 15.8168C14.1181 15.7911 14.1147 15.7655 14.1088 15.7405C14.1054 15.7279 14.1012 15.7156 14.0965 15.7034C14.0924 15.6917 14.0878 15.6801 14.0826 15.6688C14.0715 15.6454 14.0581 15.6232 14.0426 15.6025C14.0351 15.5918 14.0271 15.5815 14.0187 15.5716C14.0011 15.5528 13.9818 15.5357 13.9608 15.5208C13.9502 15.5133 13.9391 15.5063 13.9277 15.5C13.9169 15.494 13.9059 15.4886 13.8946 15.4838C13.8827 15.478 13.8707 15.4729 13.8583 15.4683C13.8462 15.4641 13.8338 15.4605 13.8213 15.4576C13.8086 15.4549 13.7957 15.4528 13.7828 15.4514C13.7685 15.4496 13.754 15.4485 13.7396 15.4483L9.11461 15.4491ZM16.0521 15.4491C16.2695 15.4491 16.4375 15.6171 16.4375 15.8345C16.4375 16.0518 16.2695 16.2199 16.0521 16.2199C16.0013 16.2206 15.9508 16.2111 15.9038 16.192C15.8567 16.1729 15.8139 16.1446 15.778 16.1086C15.742 16.0727 15.7137 16.0299 15.6945 15.9829C15.6754 15.9358 15.666 15.8853 15.6667 15.8345C15.6667 15.6171 15.8347 15.4491 16.0521 15.4491ZM17.5938 15.4491C17.8112 15.4491 17.9792 15.6171 17.9792 15.8345C17.9792 16.0518 17.8112 16.2199 17.5938 16.2199C17.543 16.2206 17.4925 16.2111 17.4454 16.192C17.3983 16.1729 17.3556 16.1446 17.3196 16.1086C17.2837 16.0727 17.2553 16.0299 17.2362 15.9829C17.2171 15.9358 17.2076 15.8853 17.2084 15.8345C17.2084 15.6171 17.3764 15.4491 17.5938 15.4491Z" fill="#EF4C45"/>
</svg>
