<svg width="21" height="20" viewBox="0 0 21 20" fill="none" xmlns="http://www.w3.org/2000/svg">
<path d="M19.0139 4.99755H12.5777V1.53032C12.5777 1.32935 12.5381 1.13036 12.4612 0.944691C12.3843 0.759025 12.2715 0.590323 12.1294 0.44822C11.9873 0.306117 11.8186 0.193394 11.633 0.116489C11.4473 0.0395829 11.2483 0 11.0473 0H1.53032C1.12445 0 0.735211 0.161229 0.44822 0.44822C0.16123 0.73521 0 1.12445 0 1.53032V17.7941C0 18.2 0.16123 18.5893 0.44822 18.8762C0.735211 19.1632 1.12445 19.3245 1.53032 19.3245H11.0473C11.4532 19.3245 11.8424 19.1632 12.1294 18.8762C12.4164 18.5893 12.5777 18.2 12.5777 17.7941V14.242H19.0139C19.5405 14.2414 20.0453 14.032 20.4176 13.6597C20.79 13.2873 20.9994 12.7825 21 12.256V6.98138C20.9988 6.45521 20.7891 5.95097 20.4169 5.57912C20.0446 5.20727 19.5401 4.99814 19.0139 4.99755ZM1.53032 0.650106H11.0473C11.2808 0.650106 11.5047 0.742843 11.6697 0.907915C11.8348 1.07299 11.9276 1.29687 11.9276 1.53032V2.53117H0.650106V1.53032C0.649812 1.41465 0.672378 1.30005 0.716508 1.19313C0.760639 1.0862 0.825464 0.989052 0.907258 0.907258C0.989052 0.825464 1.0862 0.760639 1.19313 0.716508C1.30005 0.672378 1.41465 0.649812 1.53032 0.650106ZM11.0473 18.6744H1.53032C1.41465 18.6747 1.30005 18.6521 1.19313 18.608C1.0862 18.5638 0.989052 18.499 0.907258 18.4172C0.825464 18.3354 0.760639 18.2383 0.716508 18.1313C0.672378 18.0244 0.649812 17.9098 0.650106 17.7941V16.9608H11.9276V17.7941C11.9276 18.0276 11.8348 18.2515 11.6697 18.4166C11.5047 18.5816 11.2808 18.6744 11.0473 18.6744ZM11.9276 16.313H0.650106V3.18351H11.9276V5.00202H8.2883C7.7629 5.00261 7.25909 5.21112 6.88695 5.582C6.51481 5.95289 6.30459 6.45599 6.30223 6.98138V12.256C6.30283 12.7825 6.51226 13.2873 6.88459 13.6597C7.25692 14.032 7.76174 14.2414 8.2883 14.242H11.9276V16.313ZM20.3499 12.256C20.3499 12.6115 20.2087 12.9524 19.9573 13.2038C19.7059 13.4552 19.365 13.5964 19.0095 13.5964H8.28606C7.93056 13.5964 7.58962 13.4552 7.33824 13.2038C7.08686 12.9524 6.94564 12.6115 6.94564 12.256V6.98138C6.94564 6.62588 7.08686 6.28494 7.33824 6.03356C7.58962 5.78218 7.93056 5.64096 8.28606 5.64096H19.0095C19.365 5.64096 19.7059 5.78218 19.9573 6.03356C20.2087 6.28494 20.3499 6.62588 20.3499 6.98138V12.256Z" fill="#3656FF"/>
</svg>
