<svg width="37" height="37" viewBox="0 0 37 37" fill="none" xmlns="http://www.w3.org/2000/svg">
<path d="M18.5 37C28.7173 37 37 28.7173 37 18.5C37 8.28278 28.7173 0 18.5 0C8.28273 0 0 8.28278 0 18.5C0 28.7173 8.28273 37 18.5 37Z" fill="#FFDAD9"/>
<path fill-rule="evenodd" clip-rule="evenodd" d="M12.7111 10.0216C12.6108 10.0247 12.5157 10.0667 12.4459 10.1388L9.36256 13.2221C9.34343 13.2413 9.32638 13.2625 9.31169 13.2853C9.3059 13.2946 9.3005 13.3041 9.29551 13.3138C9.29447 13.3154 9.29343 13.3169 9.29242 13.3184C9.28734 13.3285 9.28272 13.3388 9.27855 13.3493C9.27751 13.3511 9.27648 13.3529 9.27547 13.3547C9.27142 13.3651 9.26781 13.3756 9.26467 13.3863C9.26357 13.3904 9.26255 13.3945 9.26159 13.3986C9.2565 13.4194 9.25315 13.4405 9.25157 13.4619C9.25155 13.4639 9.25155 13.466 9.25157 13.468C9.25074 13.477 9.25022 13.486 9.25003 13.495V25.8283C9.24938 25.8842 9.26091 25.9397 9.28383 25.9907C9.30675 26.0418 9.34051 26.0872 9.38276 26.1239C9.42501 26.1605 9.47474 26.1876 9.52849 26.2031C9.58224 26.2186 9.63873 26.2222 9.69403 26.2137H16.1875V27.5958C16.1875 28.1077 16.6115 28.5324 17.1233 28.5324H28.3544C28.867 28.5324 29.2917 28.1077 29.2917 27.5958V20.9883C29.2917 20.4756 28.867 20.0532 28.3551 20.0532H25.4375V10.4116C25.4375 10.3094 25.3969 10.2114 25.3246 10.1391C25.2524 10.0669 25.1543 10.0262 25.0521 10.0262H12.7881C12.7624 10.0221 12.7363 10.0205 12.7103 10.0216H12.7111ZM12.8783 10.7963H24.1217L21.8092 13.1088H10.5658L12.8783 10.7963ZM24.6667 11.3413V20.0525H22.3542V13.6546L24.6667 11.3421V11.3413ZM10.0209 13.8796H21.5834V20.0525H17.1241C16.6123 20.0525 16.1875 20.4757 16.1875 20.9875V25.4421H10.0209V13.8796ZM10.7917 20.8171V21.588H15.4167V20.8171H10.7917ZM17.1241 20.8233H28.3551C28.4538 20.8233 28.5209 20.8896 28.5209 20.9875V21.5941H16.9584V20.9875C16.9584 20.8896 17.0254 20.8233 17.1241 20.8233ZM10.7917 22.3596V23.1304H13.875V22.3596H10.7917ZM16.9584 22.3657H28.5209V23.1366H16.9584V22.3657ZM16.9584 23.9074H28.5209V27.5958C28.522 27.6179 28.5184 27.6399 28.5105 27.6605C28.5026 27.6811 28.4904 27.6999 28.4748 27.7155C28.4592 27.7311 28.4404 27.7433 28.4198 27.7512C28.3992 27.7591 28.3772 27.7627 28.3551 27.7616H17.1241C17.102 27.7627 17.08 27.7591 17.0594 27.7512C17.0388 27.7433 17.0201 27.7311 17.0044 27.7155C16.9888 27.6999 16.9767 27.6811 16.9687 27.6605C16.9608 27.6399 16.9573 27.6179 16.9584 27.5958V23.9074ZM25.0521 24.6782C24.4185 24.6782 23.8959 25.2001 23.8959 25.8345C23.8959 26.4681 24.4185 26.9907 25.0521 26.9907C25.3481 26.9907 25.6171 26.872 25.8229 26.6863C26.033 26.8802 26.3079 26.9887 26.5938 26.9907C27.2282 26.9907 27.75 26.4681 27.75 25.8345C27.75 25.2001 27.2282 24.6782 26.5938 24.6782C26.2978 24.6782 26.0288 24.7939 25.8229 24.9804C25.6126 24.7872 25.3377 24.6795 25.0521 24.6782ZM18.1146 25.4491C18.0887 25.449 18.0629 25.4516 18.0375 25.4568C18.0129 25.4621 17.9889 25.4699 17.9658 25.4799C17.942 25.4904 17.9192 25.5033 17.898 25.5184C17.8873 25.5256 17.8771 25.5333 17.8672 25.5415C17.8575 25.5503 17.8482 25.5596 17.8394 25.5693C17.8307 25.5784 17.8225 25.588 17.8147 25.5979C17.8068 25.608 17.7993 25.6185 17.7924 25.6294C17.7859 25.6407 17.78 25.6523 17.7747 25.6642C17.769 25.6755 17.7638 25.687 17.7593 25.6988C17.7548 25.7112 17.7509 25.7238 17.7477 25.7366C17.7445 25.7488 17.742 25.7611 17.74 25.7736C17.7337 25.8116 17.7332 25.8503 17.7384 25.8884C17.7404 25.9011 17.743 25.9138 17.7462 25.9262C17.7494 25.939 17.7532 25.9516 17.7577 25.964C17.7618 25.9755 17.7664 25.9868 17.7716 25.9979C17.7769 26.0098 17.7828 26.0213 17.7893 26.0326C17.7965 26.0435 17.8042 26.0541 17.8124 26.0642C17.8274 26.0851 17.8445 26.1045 17.8633 26.122C17.9218 26.1731 17.9943 26.2054 18.0714 26.2145C18.0842 26.2165 18.0971 26.2177 18.11 26.2184C18.1115 26.2189 18.1131 26.2194 18.1146 26.2199H22.7396C22.7655 26.2194 22.7914 26.2163 22.8167 26.2107C22.8289 26.2077 22.841 26.204 22.8529 26.1998C22.8652 26.1961 22.8773 26.1917 22.8892 26.1868C22.901 26.1812 22.9126 26.175 22.9238 26.1683C22.9463 26.156 22.9675 26.1415 22.987 26.1251C22.997 26.1163 23.0065 26.1071 23.0156 26.0973C23.0237 26.0882 23.0314 26.0787 23.0387 26.0688C23.0624 26.0384 23.0813 26.0046 23.095 25.9686C23.0997 25.9567 23.1038 25.9446 23.1073 25.9324C23.1137 25.9071 23.1176 25.8813 23.1189 25.8553C23.1195 25.8425 23.1195 25.8296 23.1189 25.8168C23.1181 25.7911 23.1147 25.7655 23.1088 25.7405C23.1054 25.7279 23.1012 25.7156 23.0965 25.7034C23.0924 25.6917 23.0878 25.6801 23.0826 25.6688C23.0715 25.6454 23.0581 25.6232 23.0426 25.6025C23.0351 25.5918 23.0271 25.5815 23.0187 25.5716C23.0011 25.5528 22.9818 25.5357 22.9608 25.5208C22.9502 25.5133 22.9391 25.5063 22.9277 25.5C22.9169 25.494 22.9059 25.4886 22.8946 25.4838C22.8827 25.478 22.8707 25.4729 22.8583 25.4683C22.8462 25.4641 22.8338 25.4605 22.8213 25.4576C22.8086 25.4549 22.7957 25.4528 22.7828 25.4514C22.7685 25.4496 22.754 25.4485 22.7396 25.4483L18.1146 25.4491ZM25.0521 25.4491C25.2695 25.4491 25.4375 25.6171 25.4375 25.8345C25.4375 26.0518 25.2695 26.2199 25.0521 26.2199C25.0013 26.2206 24.9508 26.2111 24.9038 26.192C24.8567 26.1729 24.8139 26.1446 24.778 26.1086C24.742 26.0727 24.7137 26.0299 24.6945 25.9829C24.6754 25.9358 24.666 25.8853 24.6667 25.8345C24.6667 25.6171 24.8347 25.4491 25.0521 25.4491ZM26.5938 25.4491C26.8112 25.4491 26.9792 25.6171 26.9792 25.8345C26.9792 26.0518 26.8112 26.2199 26.5938 26.2199C26.543 26.2206 26.4925 26.2111 26.4454 26.192C26.3983 26.1729 26.3556 26.1446 26.3196 26.1086C26.2837 26.0727 26.2553 26.0299 26.2362 25.9829C26.2171 25.9358 26.2076 25.8853 26.2084 25.8345C26.2084 25.6171 26.3764 25.4491 26.5938 25.4491Z" fill="#EF4C45"/>
</svg>
