<svg width="37" height="37" viewBox="0 0 37 37" fill="none" xmlns="http://www.w3.org/2000/svg">
<path d="M18.5 37C28.7173 37 37 28.7173 37 18.5C37 8.28278 28.7173 0 18.5 0C8.28273 0 0 8.28278 0 18.5C0 28.7173 8.28273 37 18.5 37Z" fill="#DAE0FF"/>
<path d="M30.0139 13.9976H23.5777V10.5303C23.5777 10.3294 23.5381 10.1304 23.4612 9.94469C23.3843 9.75902 23.2715 9.59032 23.1294 9.44822C22.9873 9.30612 22.8186 9.19339 22.633 9.11649C22.4473 9.03958 22.2483 9 22.0473 9H12.5303C12.1245 9 11.7352 9.16123 11.4482 9.44822C11.1612 9.73521 11 10.1245 11 10.5303V26.7941C11 27.2 11.1612 27.5893 11.4482 27.8762C11.7352 28.1632 12.1245 28.3245 12.5303 28.3245H22.0473C22.4532 28.3245 22.8424 28.1632 23.1294 27.8762C23.4164 27.5893 23.5777 27.2 23.5777 26.7941V23.242H30.0139C30.5405 23.2414 31.0453 23.032 31.4176 22.6597C31.79 22.2873 31.9994 21.7825 32 21.256V15.9814C31.9988 15.4552 31.7891 14.951 31.4169 14.5791C31.0446 14.2073 30.5401 13.9981 30.0139 13.9976ZM12.5303 9.65011H22.0473C22.2808 9.65011 22.5047 9.74284 22.6697 9.90791C22.8348 10.073 22.9276 10.2969 22.9276 10.5303V11.5312H11.6501V10.5303C11.6498 10.4146 11.6724 10.3001 11.7165 10.1931C11.7606 10.0862 11.8255 9.98905 11.9073 9.90726C11.9891 9.82546 12.0862 9.76064 12.1931 9.71651C12.3001 9.67238 12.4146 9.64981 12.5303 9.65011ZM22.0473 27.6744H12.5303C12.4146 27.6747 12.3001 27.6521 12.1931 27.608C12.0862 27.5638 11.9891 27.499 11.9073 27.4172C11.8255 27.3354 11.7606 27.2383 11.7165 27.1313C11.6724 27.0244 11.6498 26.9098 11.6501 26.7941V25.9608H22.9276V26.7941C22.9276 27.0276 22.8348 27.2515 22.6697 27.4166C22.5047 27.5816 22.2808 27.6744 22.0473 27.6744ZM22.9276 25.313H11.6501V12.1835H22.9276V14.002H19.2883C18.7629 14.0026 18.2591 14.2111 17.887 14.582C17.5148 14.9529 17.3046 15.456 17.3022 15.9814V21.256C17.3028 21.7825 17.5123 22.2873 17.8846 22.6597C18.2569 23.032 18.7617 23.2414 19.2883 23.242H22.9276V25.313ZM31.3499 21.256C31.3499 21.6115 31.2087 21.9524 30.9573 22.2038C30.7059 22.4552 30.365 22.5964 30.0095 22.5964H19.2861C18.9306 22.5964 18.5896 22.4552 18.3382 22.2038C18.0869 21.9524 17.9456 21.6115 17.9456 21.256V15.9814C17.9456 15.6259 18.0869 15.2849 18.3382 15.0336C18.5896 14.7822 18.9306 14.641 19.2861 14.641H30.0095C30.365 14.641 30.7059 14.7822 30.9573 15.0336C31.2087 15.2849 31.3499 15.6259 31.3499 15.9814V21.256Z" fill="#3656FF"/>
<path d="M20.631 20.6729H19.333V21.323H20.631V20.6729Z" fill="#3656FF"/>
<path d="M25.9904 20.6729H23.3118V21.323H25.9904V20.6729Z" fill="#3656FF"/>
<path d="M29.9672 20.6729H28.6692V21.323H29.9672V20.6729Z" fill="#3656FF"/>
<path d="M23.5911 19.0353C23.677 19.0353 23.7594 19.0012 23.8201 18.9404C23.8809 18.8797 23.915 18.7973 23.915 18.7114V15.9814C23.915 15.8955 23.8809 15.8131 23.8201 15.7523C23.7594 15.6916 23.677 15.6574 23.5911 15.6574H19.333C19.2471 15.6574 19.1647 15.6916 19.1039 15.7523C19.0432 15.8131 19.009 15.8955 19.009 15.9814V18.7069C19.009 18.7494 19.0174 18.7916 19.0337 18.8309C19.05 18.8702 19.0738 18.9059 19.1039 18.936C19.134 18.966 19.1697 18.9899 19.209 19.0062C19.2483 19.0225 19.2904 19.0308 19.333 19.0308L23.5911 19.0353ZM19.6591 16.312H23.2671V18.3852H19.6591V16.312Z" fill="#3656FF"/>
</svg>
