<svg width="37" height="37" viewBox="0 0 37 37" fill="none" xmlns="http://www.w3.org/2000/svg">
<path d="M18.5 37C28.7173 37 37 28.7173 37 18.5C37 8.28273 28.7173 0 18.5 0C8.28273 0 0 8.28273 0 18.5C0 28.7173 8.28273 37 18.5 37Z" fill="#E1FFDF"/>
<path fill-rule="evenodd" clip-rule="evenodd" d="M13.5186 9.00018C13.4171 9.0029 13.3206 9.04548 13.2495 9.11891L10.1199 12.285C10.1103 12.294 10.1012 12.3035 10.0925 12.3135L10.0894 12.3174C10.0536 12.3614 10.0275 12.4126 10.0131 12.4677C9.99865 12.5227 9.99612 12.5803 10.0057 12.6364V25.2294C10.0057 25.3344 10.0469 25.435 10.1203 25.5093C10.1936 25.5835 10.2931 25.6252 10.3969 25.6252H19.8639C20.0634 26.0217 20.3247 26.3961 20.6518 26.7277C21.4604 27.5428 22.5554 28.0003 23.6968 28C24.8382 27.9997 25.933 27.5416 26.7412 26.7262C27.5473 25.909 28 24.8016 28 23.6472C28 22.4927 27.5473 21.3854 26.7412 20.5682V20.5666C26.6439 20.4692 26.542 20.3764 26.436 20.2888V9.3991C26.4356 9.29442 26.3942 9.19416 26.3209 9.12028C26.2476 9.04641 26.1483 9.00493 26.0448 9.00493V9.00335H13.5812C13.5605 9.0006 13.5396 8.99954 13.5186 9.00018ZM13.6884 9.79486H25.1005L22.7533 12.1694H11.3412L13.6884 9.79486ZM25.6536 10.3545V19.7695C24.9294 19.3966 24.1159 19.2378 23.3064 19.3112V12.729L25.6536 10.3545ZM10.7881 12.9609H22.524V19.4593C21.8162 19.6596 21.1713 20.0413 20.6518 20.5674C20.1111 21.116 19.7247 21.8005 19.5325 22.5503C19.3402 23.3002 19.349 24.0884 19.558 24.8337H10.7873L10.7881 12.9609ZM23.6976 20.0798C24.1604 20.0797 24.6187 20.1721 25.046 20.3516C25.4734 20.5312 25.8615 20.7944 26.188 21.1262C26.516 21.4567 26.7762 21.8494 26.9538 22.2819C27.1314 22.7144 27.2228 23.1781 27.2228 23.6464C27.2228 24.1147 27.1314 24.5784 26.9538 25.0108C26.7762 25.4433 26.516 25.8361 26.188 26.1666C25.8613 26.4984 25.4731 26.7617 25.0456 26.9414C24.6181 27.1212 24.1597 27.2138 23.6968 27.2139C23.2339 27.214 22.7754 27.1217 22.3478 26.9423C21.9202 26.7628 21.5318 26.4998 21.2049 26.1681C20.877 25.8373 20.6167 25.4443 20.4392 25.0116C20.2616 24.5788 20.1702 24.1149 20.1702 23.6464C20.1702 23.1778 20.2616 22.7139 20.4392 22.2812C20.6167 21.8485 20.877 21.4554 21.2049 21.1246C21.5318 20.7928 21.9204 20.5297 22.3482 20.3504C22.776 20.1711 23.2346 20.0791 23.6976 20.0798ZM11.5705 20.0846V20.8761H16.2649V20.0846H11.5705ZM23.6914 20.8872C23.5879 20.8888 23.4893 20.9319 23.4171 21.007C23.345 21.082 23.3052 21.183 23.3064 21.2877V21.4745C22.7549 21.6367 22.3347 22.1267 22.3347 22.7266C22.3347 23.4627 22.9638 24.0406 23.6976 24.0406C24.0388 24.0406 24.2766 24.282 24.2766 24.563C24.2766 24.8424 24.0419 25.0798 23.7055 25.0838C23.7008 25.0837 23.6961 25.0837 23.6914 25.0838H23.6898C23.3534 25.0806 23.1171 24.8424 23.1171 24.563C23.1249 24.0279 22.3269 24.0279 22.3347 24.563C22.3347 25.1629 22.7549 25.6513 23.3064 25.8135V26.0051C23.2986 26.5409 24.0967 26.5409 24.0888 26.0051V25.8135C24.6397 25.6513 25.059 25.1629 25.059 24.563C25.059 23.5933 24.2743 23.2419 23.6976 23.249C23.3565 23.253 23.1171 23.0076 23.1171 22.7266C23.1171 22.4512 23.3479 22.2169 23.6773 22.2074C23.6916 22.2087 23.706 22.2092 23.7203 22.209C24.0489 22.2201 24.2766 22.452 24.2766 22.7266C24.2688 23.2617 25.0668 23.2617 25.059 22.7266C25.059 22.1393 24.6271 21.7254 24.0888 21.5631V21.2877C24.0895 21.2348 24.0796 21.1823 24.0599 21.1333C24.0401 21.0843 24.0108 21.0398 23.9737 21.0025C23.9367 20.9651 23.8926 20.9357 23.8441 20.9159C23.7956 20.8961 23.7437 20.8863 23.6914 20.8872ZM11.5705 21.6676V22.4591H14.7001V21.6676H11.5705Z" fill="#50B748"/>
</svg>
