<svg width="32" height="33" viewBox="0 0 32 33" fill="none" xmlns="http://www.w3.org/2000/svg">
<path d="M31.5847 16.4729C31.5847 15.1479 31.4772 14.181 31.2445 13.1783H16.1145V19.1586H24.9955C24.8165 20.6448 23.8496 22.883 21.7009 24.3869L21.6708 24.5872L26.4546 28.2931L26.786 28.3262C29.8299 25.515 31.5847 21.3789 31.5847 16.4729Z" fill="#4285F4"/>
<path d="M16.1151 32.2296C20.4661 32.2296 24.1187 30.7971 26.7867 28.3262L21.7016 24.387C20.3408 25.3359 18.5144 25.9984 16.1151 25.9984C11.8537 25.9984 8.23686 23.1874 6.94756 19.3019L6.75858 19.318L1.78429 23.1676L1.71924 23.3485C4.3692 28.6126 9.81242 32.2296 16.1151 32.2296Z" fill="#34A853"/>
<path d="M6.94719 19.3019C6.60699 18.2992 6.41011 17.2248 6.41011 16.1148C6.41011 15.0046 6.60699 13.9303 6.92929 12.9276L6.92028 12.7141L1.88366 8.80258L1.71887 8.88096C0.626692 11.0654 0 13.5185 0 16.1148C0 18.711 0.626692 21.164 1.71887 23.3485L6.94719 19.3019Z" fill="#FBBC05"/>
<path d="M16.1151 6.231C19.1411 6.231 21.1823 7.53808 22.3461 8.63038L26.8941 4.18984C24.1009 1.59358 20.4661 0 16.1151 0C9.81242 0 4.36919 3.61684 1.71924 8.88096L6.92966 12.9276C8.23686 9.04217 11.8537 6.231 16.1151 6.231Z" fill="#EB4335"/>
</svg>
