<svg width="37" height="37" viewBox="0 0 37 37" fill="none" xmlns="http://www.w3.org/2000/svg">
<path d="M18.5 37C28.7173 37 37 28.7173 37 18.5C37 8.28273 28.7173 0 18.5 0C8.28273 0 0 8.28273 0 18.5C0 28.7173 8.28273 37 18.5 37Z" fill="#3C5A9A"/>
<path d="M24.5146 5.6786H20.4164C17.9844 5.6786 15.2793 6.70147 15.2793 10.2268C15.2912 11.4551 15.2793 12.6315 15.2793 13.9555H12.4658V18.4326H15.3664V31.3215H20.6963V18.3475H24.2143L24.5326 13.9429H20.6045C20.6045 13.9429 20.6133 11.9835 20.6045 11.4145C20.6045 10.0214 22.0541 10.1012 22.1413 10.1012C22.8311 10.1012 24.1723 10.1032 24.5166 10.1012V5.6786H24.5146Z" fill="white"/>
</svg>
